<?xml version="1.0" encoding="utf-8"?>
<!-- Generator: Adobe Illustrator 19.0.0, SVG Export Plug-In . SVG Version: 6.00 Build 0)  -->
<svg version="1.1" xmlns="http://www.w3.org/2000/svg" xmlns:xlink="http://www.w3.org/1999/xlink" x="0px" y="0px"
	 viewBox="0 0 1400 980" style="enable-background:new 0 0 1400 980;" xml:space="preserve">
<style type="text/css">
	.st0{fill:#94D8EC;}
	.st1{fill:#6FC8DC;}
	.st2{fill:#7AD0E2;}
	.st3{fill:#56565C;}
	.st4{fill:#9A6E2A;}
	.st5{fill:#2E0D45;}
	.st6{fill:#F1BB59;}
	.st7{fill:#F1DB0E;}
	.st8{fill:#D8D5D4;}
	.st9{fill:#FFD57F;}
	.st10{fill:#273777;}
	.st11{fill:#3A52A4;}
	.st12{fill:#FAEE39;}
	.st13{fill:#E0E1E2;}
	.st14{fill:#FFFFFF;}
	.st15{fill:#6C461B;}
	.st16{fill:#EBE6E5;}
	.st17{fill:#CFCECE;}
	.st18{fill:none;stroke:#56565C;stroke-width:16;stroke-miterlimit:10;}
</style>
<g id="Layer_2">
	<rect id="XMLID_1_" class="st0" width="1400" height="980"/>
</g>
<g id="Layer_1">
	<ellipse id="XMLID_220_" class="st1" cx="764" cy="898.5" rx="183.6" ry="63.6"/>
	<ellipse id="XMLID_338_" class="st1" cx="1108.5" cy="909.4" rx="183.6" ry="48.9"/>
	<path id="XMLID_3_" class="st1" d="M322.8,732.1h658.5c45.5,0,90.5-11.3,130.1-34.2c49.6-28.8,101.3-81.3,109.7-176
		c16.7-188.9-183.5-232.3-183.5-232.3s19.6-123.9-83.8-176.8S773.7,132,773.7,132s-146-154.3-346.1-77.2S234.4,320.9,234.4,320.9
		S78,363.9,94.7,540.7c9.2,95.9,67.6,144.3,119.3,168.1C248.2,724.6,285.3,732.1,322.8,732.1z"/>
	<g id="XMLID_224_">
		<path id="XMLID_335_" class="st1" d="M532.5,27.2l-0.2,6.3l-24-0.8l0.2-6.3L532.5,27.2z"/>
		<path id="XMLID_333_" class="st1" d="M582.9,33.1l-0.9,6.3l-23.8-3.5l0.9-6.3L582.9,33.1z"/>
		<path id="XMLID_331_" class="st1" d="M632.3,44.6l-1.6,6.1l-23.2-6.1l1.6-6.1L632.3,44.6z"/>
		<path id="XMLID_329_" class="st1" d="M680.2,61.7l-2.3,5.9l-22.4-8.7l2.3-5.9L680.2,61.7z"/>
		<path id="XMLID_327_" class="st1" d="M725.8,84l-2.9,5.6l-21.2-11.2l2.9-5.6L725.8,84z"/>
		<path id="XMLID_325_" class="st1" d="M768.6,111.3l-3.6,5.2L745.2,103l3.6-5.2L768.6,111.3z"/>
		<path id="XMLID_323_" class="st0" d="M808,143.3l-4.1,4.8l-18.2-15.7l4.1-4.8L808,143.3z"/>
		<path id="XMLID_321_" class="st0" d="M843.7,179.5l-4.6,4.3l-16.3-17.6l4.6-4.3L843.7,179.5z"/>
		<path id="XMLID_319_" class="st0" d="M875,219.4l-5.1,3.8l-14.3-19.3l5.1-3.8L875,219.4z"/>
		<path id="XMLID_317_" class="st0" d="M901.7,262.6l-5.5,3.2l-12-20.8l5.5-3.2L901.7,262.6z"/>
		<path id="XMLID_315_" class="st0" d="M923.4,308.5l-5.8,2.5l-9.6-22l5.8-2.5L923.4,308.5z"/>
		<path id="XMLID_313_" class="st0" d="M939.7,356.6l-6,1.9l-7-23l6-1.9L939.7,356.6z"/>
		<path id="XMLID_311_" class="st0" d="M950.5,406.2l-6.2,1.2l-4.4-23.6l6.2-1.2L950.5,406.2z"/>
		<path id="XMLID_309_" class="st0" d="M955.6,456.7l-6.3,0.5l-1.7-24l6.3-0.5L955.6,456.7z"/>
		<path id="XMLID_307_" class="st0" d="M955.1,507.5l-6.3-0.3l0.9-24l6.3,0.2L955.1,507.5z"/>
		<path id="XMLID_305_" class="st0" d="M948.9,557.9l-6.2-1l3.6-23.7l6.2,1L948.9,557.9z"/>
		<path id="XMLID_303_" class="st0" d="M937.1,607.3l-6.1-1.7l6.3-23.2l6.1,1.7L937.1,607.3z"/>
		<path id="XMLID_301_" class="st0" d="M919.7,655l-5.9-2.3l8.9-22.3l5.9,2.3L919.7,655z"/>
		<path id="XMLID_299_" class="st0" d="M897.1,700.5l-5.6-3l11.3-21.2l5.6,3L897.1,700.5z"/>
		<path id="XMLID_297_" class="st0" d="M869.5,743.1l-5.2-3.6l13.6-19.8l5.2,3.6L869.5,743.1z"/>
		<path id="XMLID_295_" class="st1" d="M837.3,782.4l-4.8-4.2l15.8-18.1l4.8,4.1L837.3,782.4z"/>
		<path id="XMLID_293_" class="st1" d="M801,817.8l-4.3-4.7l17.7-16.2l4.3,4.7L801,817.8z"/>
		<path id="XMLID_291_" class="st0" d="M760.9,848.9l-3.7-5.1l19.4-14.2l3.7,5.1L760.9,848.9z"/>
		<path id="XMLID_289_" class="st0" d="M717.5,875.3l-3.1-5.5l20.9-11.9l3.1,5.5L717.5,875.3z"/>
		<path id="XMLID_287_" class="st0" d="M671.4,896.7l-2.5-5.8l22.1-9.5l2.5,5.8L671.4,896.7z"/>
		<path id="XMLID_285_" class="st0" d="M623.3,912.7l-1.8-6.1l23-6.9l1.8,6.1L623.3,912.7z"/>
		<path id="XMLID_283_" class="st1" d="M573.6,923.2l-1.1-6.2l23.6-4.3l1.1,6.2L573.6,923.2z"/>
		<path id="XMLID_281_" class="st1" d="M523,928l-0.4-6.3l24-1.6l0.4,6.3L523,928z"/>
		<path id="XMLID_279_" class="st1" d="M472.3,927.2l0.3-6.3l24,1.1l-0.3,6.3L472.3,927.2z"/>
		<path id="XMLID_277_" class="st1" d="M421.9,920.7l1-6.2l23.7,3.8l-1,6.2L421.9,920.7z"/>
		<path id="XMLID_275_" class="st1" d="M372.6,908.6l1.7-6.1l23.1,6.4l-1.7,6.1L372.6,908.6z"/>
		<path id="XMLID_273_" class="st1" d="M325,891l2.4-5.9l22.3,9l-2.4,5.9L325,891z"/>
		<path id="XMLID_271_" class="st1" d="M279.6,868.1l3-5.6l21.1,11.5l-3,5.6L279.6,868.1z"/>
		<path id="XMLID_269_" class="st1" d="M237.2,840.2l3.6-5.2l19.7,13.8l-3.6,5.2L237.2,840.2z"/>
		<path id="XMLID_267_" class="st1" d="M198.1,807.8l4.2-4.7l18,15.9l-4.2,4.7L198.1,807.8z"/>
		<path id="XMLID_265_" class="st1" d="M162.9,771.2l4.7-4.2l16.1,17.8l-4.7,4.2L162.9,771.2z"/>
		<path id="XMLID_263_" class="st1" d="M132,730.9l5.1-3.7l14,19.5l-5.1,3.7L132,730.9z"/>
		<path id="XMLID_261_" class="st1" d="M105.9,687.4l5.5-3.1l11.8,20.9l-5.5,3.1L105.9,687.4z"/>
		<path id="XMLID_259_" class="st1" d="M84.8,641.2l5.8-2.5l9.3,22.1l-5.8,2.5L84.8,641.2z"/>
		<path id="XMLID_257_" class="st1" d="M69,592.9l6.1-1.8l6.8,23l-6.1,1.8L69,592.9z"/>
		<path id="XMLID_255_" class="st1" d="M58.9,543.2l6.2-1.1l4.1,23.7l-6.2,1.1L58.9,543.2z"/>
		<path id="XMLID_253_" class="st1" d="M54.4,492.6l6.3-0.4l1.4,24l-6.3,0.4L54.4,492.6z"/>
		<path id="XMLID_251_" class="st1" d="M55.5,441.8l6.3,0.3l-1.2,24l-6.3-0.3L55.5,441.8z"/>
		<path id="XMLID_249_" class="st1" d="M62.3,391.5l6.2,1l-3.9,23.7l-6.2-1L62.3,391.5z"/>
		<path id="XMLID_247_" class="st1" d="M74.7,342.3l6.1,1.7l-6.6,23.1l-6.1-1.7L74.7,342.3z"/>
		<path id="XMLID_245_" class="st1" d="M92.6,294.8l5.8,2.4l-9.1,22.2l-5.8-2.4L92.6,294.8z"/>
		<path id="XMLID_243_" class="st1" d="M115.8,249.6l5.5,3.1l-11.6,21l-5.5-3.1L115.8,249.6z"/>
		<path id="XMLID_241_" class="st1" d="M143.9,207.3l5.2,3.7l-13.9,19.6l-5.2-3.7L143.9,207.3z"/>
		<path id="XMLID_239_" class="st1" d="M176.6,168.4l4.7,4.2l-16,17.9l-4.7-4.2L176.6,168.4z"/>
		<path id="XMLID_237_" class="st1" d="M213.4,133.4l4.2,4.7l-17.9,16l-4.2-4.7L213.4,133.4z"/>
		<path id="XMLID_235_" class="st1" d="M253.9,102.8l3.7,5.2L238,121.9l-3.7-5.2L253.9,102.8z"/>
		<path id="XMLID_233_" class="st1" d="M297.5,76.9l3.1,5.5l-21,11.6l-3.1-5.5L297.5,76.9z"/>
		<path id="XMLID_231_" class="st1" d="M343.9,56.1l2.4,5.8l-22.2,9.2l-2.4-5.8L343.9,56.1z"/>
		<path id="XMLID_229_" class="st1" d="M392.2,40.6l1.7,6.1l-23.1,6.6l-1.7-6.1L392.2,40.6z"/>
		<path id="XMLID_227_" class="st1" d="M442,30.8l1,6.2l-23.7,4l-1-6.2L442,30.8z"/>
		<path id="XMLID_225_" class="st1" d="M492.7,26.6l0.3,6.3l-24,1.3l-0.3-6.3L492.7,26.6z"/>
	</g>
	<g id="XMLID_79_">
		<path id="XMLID_81_" class="st1" d="M927.3,36.7l-0.2,6.3l-24-0.8l0.2-6.3L927.3,36.7z"/>
		<path id="XMLID_83_" class="st1" d="M977.7,42.5l-0.9,6.3l-23.8-3.5L954,39L977.7,42.5z"/>
		<path id="XMLID_85_" class="st1" d="M1027.2,54l-1.6,6.1l-23.2-6.1l1.6-6.1L1027.2,54z"/>
		<path id="XMLID_87_" class="st1" d="M1075.1,71.1l-2.3,5.9l-22.4-8.7l2.3-5.9L1075.1,71.1z"/>
		<path id="XMLID_89_" class="st1" d="M1120.6,93.4l-2.9,5.6l-21.2-11.2l2.9-5.6L1120.6,93.4z"/>
		<path id="XMLID_91_" class="st1" d="M1163.4,120.8l-3.6,5.2l-19.8-13.5l3.6-5.2L1163.4,120.8z"/>
		<path id="XMLID_93_" class="st1" d="M1202.9,152.7l-4.1,4.8l-18.2-15.7l4.1-4.8L1202.9,152.7z"/>
		<path id="XMLID_95_" class="st1" d="M1238.5,188.9l-4.6,4.3l-16.3-17.6l4.6-4.3L1238.5,188.9z"/>
		<path id="XMLID_97_" class="st1" d="M1269.9,228.8l-5.1,3.8l-14.3-19.3l5.1-3.8L1269.9,228.8z"/>
		<path id="XMLID_99_" class="st1" d="M1296.6,272l-5.5,3.2l-12-20.8l5.5-3.2L1296.6,272z"/>
		<path id="XMLID_101_" class="st1" d="M1318.2,317.9l-5.8,2.5l-9.6-22l5.8-2.5L1318.2,317.9z"/>
		<path id="XMLID_103_" class="st1" d="M1334.6,366l-6,1.9l-7-23l6-1.9L1334.6,366z"/>
		<path id="XMLID_105_" class="st1" d="M1345.4,415.7l-6.2,1.2l-4.4-23.6l6.2-1.2L1345.4,415.7z"/>
		<path id="XMLID_107_" class="st1" d="M1350.5,466.2l-6.3,0.5l-1.7-24l6.3-0.5L1350.5,466.2z"/>
		<path id="XMLID_109_" class="st1" d="M1350,516.9l-6.3-0.3l0.9-24l6.3,0.2L1350,516.9z"/>
		<path id="XMLID_111_" class="st1" d="M1343.8,567.3l-6.2-1l3.6-23.7l6.2,1L1343.8,567.3z"/>
		<path id="XMLID_113_" class="st1" d="M1332,616.7l-6.1-1.7l6.3-23.2l6.1,1.7L1332,616.7z"/>
		<path id="XMLID_115_" class="st1" d="M1314.6,664.5l-5.9-2.3l8.9-22.3l5.9,2.3L1314.6,664.5z"/>
		<path id="XMLID_117_" class="st1" d="M1292,709.9l-5.6-3l11.3-21.2l5.6,3L1292,709.9z"/>
		<path id="XMLID_119_" class="st1" d="M1264.4,752.5l-5.2-3.6l13.6-19.8l5.2,3.6L1264.4,752.5z"/>
		<path id="XMLID_136_" class="st1" d="M1232.2,791.8l-4.8-4.2l15.8-18.1l4.8,4.1L1232.2,791.8z"/>
		<path id="XMLID_138_" class="st1" d="M1195.8,827.2l-4.3-4.7l17.7-16.2l4.3,4.7L1195.8,827.2z"/>
		<path id="XMLID_140_" class="st1" d="M1155.7,858.3l-3.7-5.1l19.4-14.2l3.7,5.1L1155.7,858.3z"/>
		<path id="XMLID_142_" class="st0" d="M1112.4,884.8l-3.1-5.5l20.9-11.9l3.1,5.5L1112.4,884.8z"/>
		<path id="XMLID_144_" class="st0" d="M1066.3,906.1l-2.5-5.8l22.1-9.5l2.5,5.8L1066.3,906.1z"/>
		<path id="XMLID_146_" class="st0" d="M1018.1,922.2l-1.8-6.1l23-6.9l1.8,6.1L1018.1,922.2z"/>
		<path id="XMLID_148_" class="st0" d="M968.4,932.6l-1.1-6.2l23.6-4.3l1.1,6.2L968.4,932.6z"/>
		<path id="XMLID_150_" class="st1" d="M917.9,937.5l-0.4-6.3l24-1.6l0.4,6.3L917.9,937.5z"/>
		<path id="XMLID_152_" class="st1" d="M867.1,936.6l0.3-6.3l24,1.1l-0.3,6.3L867.1,936.6z"/>
		<path id="XMLID_158_" class="st1" d="M816.8,930.2l1-6.2l23.7,3.8l-1,6.2L816.8,930.2z"/>
		<path id="XMLID_160_" class="st1" d="M767.5,918l1.7-6.1l23.1,6.4l-1.7,6.1L767.5,918z"/>
		<path id="XMLID_162_" class="st1" d="M719.8,900.4l2.4-5.9l22.3,9l-2.4,5.9L719.8,900.4z"/>
		<path id="XMLID_164_" class="st1" d="M674.5,877.5l3-5.6l21.1,11.5l-3,5.6L674.5,877.5z"/>
		<path id="XMLID_166_" class="st1" d="M632,849.6l3.6-5.2l19.7,13.8l-3.6,5.2L632,849.6z"/>
		<path id="XMLID_168_" class="st1" d="M593,817.2l4.2-4.7l18,15.9l-4.2,4.7L593,817.2z"/>
		<path id="XMLID_170_" class="st1" d="M557.8,780.6l4.7-4.2l16.1,17.8l-4.7,4.2L557.8,780.6z"/>
		<path id="XMLID_172_" class="st1" d="M526.9,740.3l5.1-3.7l14,19.5l-5.1,3.7L526.9,740.3z"/>
		<path id="XMLID_174_" class="st0" d="M500.7,696.8l5.5-3.1l11.8,20.9l-5.5,3.1L500.7,696.8z"/>
		<path id="XMLID_176_" class="st0" d="M479.6,650.6l5.8-2.5l9.3,22.1l-5.8,2.5L479.6,650.6z"/>
		<path id="XMLID_178_" class="st0" d="M463.9,602.3l6.1-1.8l6.8,23l-6.1,1.8L463.9,602.3z"/>
		<path id="XMLID_180_" class="st0" d="M453.7,552.6l6.2-1.1l4.1,23.7l-6.2,1.1L453.7,552.6z"/>
		<path id="XMLID_182_" class="st0" d="M449.2,502l6.3-0.4l1.4,24l-6.3,0.4L449.2,502z"/>
		<path id="XMLID_185_" class="st0" d="M450.4,451.3l6.3,0.3l-1.2,24l-6.3-0.3L450.4,451.3z"/>
		<path id="XMLID_188_" class="st0" d="M457.1,400.9l6.2,1l-3.9,23.7l-6.2-1L457.1,400.9z"/>
		<path id="XMLID_190_" class="st0" d="M469.6,351.7l6.1,1.7l-6.6,23.1l-6.1-1.7L469.6,351.7z"/>
		<path id="XMLID_192_" class="st0" d="M487.5,304.2l5.8,2.4l-9.1,22.2l-5.8-2.4L487.5,304.2z"/>
		<path id="XMLID_194_" class="st0" d="M510.7,259l5.5,3.1l-11.6,21l-5.5-3.1L510.7,259z"/>
		<path id="XMLID_196_" class="st0" d="M538.8,216.7l5.2,3.7L530,240l-5.2-3.7L538.8,216.7z"/>
		<path id="XMLID_198_" class="st0" d="M571.4,177.8l4.7,4.2l-16,17.9l-4.7-4.2L571.4,177.8z"/>
		<path id="XMLID_200_" class="st0" d="M608.2,142.9l4.2,4.7l-17.9,16l-4.2-4.7L608.2,142.9z"/>
		<path id="XMLID_202_" class="st0" d="M648.7,112.2l3.7,5.2l-19.6,13.9l-3.7-5.2L648.7,112.2z"/>
		<path id="XMLID_204_" class="st0" d="M692.4,86.3l3.1,5.5l-21,11.6l-3.1-5.5L692.4,86.3z"/>
		<path id="XMLID_206_" class="st1" d="M738.7,65.5l2.4,5.8L719,80.5l-2.4-5.8L738.7,65.5z"/>
		<path id="XMLID_208_" class="st1" d="M787.1,50.1l1.7,6.1l-23.1,6.6l-1.7-6.1L787.1,50.1z"/>
		<path id="XMLID_210_" class="st1" d="M836.9,40.2l1,6.2l-23.7,4l-1-6.2L836.9,40.2z"/>
		<path id="XMLID_212_" class="st1" d="M887.5,36l0.3,6.3l-24,1.3l-0.3-6.3L887.5,36z"/>
	</g>
	<g id="XMLID_602_">
		<path id="XMLID_519_" class="st0" d="M958.7,426h-81.4c-1.5,0-2.7-1.2-2.7-2.7V282.5c0-1.5,1.2-2.7,2.7-2.7h81.4
			c1.5,0,2.7,1.2,2.7,2.7v140.8C961.5,424.8,960.3,426,958.7,426z"/>
		<circle id="XMLID_520_" class="st1" cx="917" cy="412.7" r="7.2"/>
		<path id="XMLID_219_" class="st1" d="M953.3,289.8c0-1.5-1.2-2.7-2.7-2.7H886c-1.5,0-2.7,1.2-2.7,2.7v106.7l70-105.8V289.8z"/>
		<path id="XMLID_218_" class="st0" d="M883.3,396.5v0.2c0,1.5,1.2,2.7,2.7,2.7h64.6c1.5,0,2.8-1.2,2.7-2.8v-106L883.3,396.5z"/>
	</g>
	<g id="XMLID_80_">
		<path id="XMLID_217_" class="st0" d="M810.9,281.7H707.5c-6.3,0-11.4-5.1-11.4-11.4v-66.9c0-4.9,4-8.9,8.9-8.9h108.4
			c4.9,0,8.9,4,8.9,8.9v66.9C822.4,276.5,817.2,281.7,810.9,281.7z"/>
		<path id="XMLID_216_" class="st2" d="M700.4,190.8l50.7-42.9c4.7-4,11.6-4,16.3,0l50.7,42.9c2.7,2.3,4.3,5.7,4.3,9.3l0,0
			l-63.1,49.1l-63.1-49.1l0,0C696.1,196.4,697.7,193,700.4,190.8z"/>
		<path id="XMLID_215_" class="st0" d="M698.5,277.2l53.5-44.4c4.3-3.5,10.4-3.5,14.6,0l53.5,44.4c0,0-2.9,4.4-9.1,4.4
			c-6.2,0-6.2,0-6.2,0h-97.2C707.5,281.7,701.5,282.2,698.5,277.2z"/>
		<g id="XMLID_214_">
			<path id="XMLID_221_" class="st0" d="M748.4,214.4c-2.8-1.5-4.9-3.5-6.3-6.1c-1.4-2.6-2.1-5.5-2.1-8.6c0-4.1,0.9-8,2.6-11.7
				c1.7-3.6,4.3-6.6,7.7-8.8c3.4-2.3,7.5-3.4,12.3-3.4c2.9,0,5.5,0.5,7.8,1.6c2.3,1.1,4,2.7,5.3,4.8c1.3,2.1,1.9,4.7,1.9,7.8
				c0,3.1-0.5,5.7-1.6,8.1c-1,2.3-2.4,4.1-4.1,5.4c-1.7,1.3-3.4,1.9-5.3,1.9c-2.7,0-4.5-1.1-5.3-3.3c-0.5,1-1.2,1.9-2.1,2.4
				c-0.9,0.6-1.8,0.9-2.9,0.9c-1.8,0-3.2-0.6-4.2-1.8c-1-1.2-1.5-2.8-1.5-4.7c0-2.1,0.5-4.1,1.5-6c1-1.9,2.3-3.4,3.9-4.6
				c1.6-1.2,3.4-1.7,5.2-1.7c0.6,0,1,0.1,1.2,0.3c0.2,0.2,0.4,0.6,0.5,1.2c0.6-0.1,1.1-0.2,1.8-0.2c1.3,0,2,0.5,2,1.4
				c0,0.6-0.2,1.9-0.6,4c-0.6,3.1-0.9,5.2-0.9,6.4c0,0.5,0.1,0.8,0.4,1.1c0.3,0.3,0.8,0.4,1.4,0.4c0.9,0,1.8-0.5,2.7-1.5
				c0.9-1,1.7-2.4,2.3-4.1c0.6-1.7,0.9-3.6,0.9-5.7c0-3.2-1-5.6-2.9-7.3c-2-1.7-4.6-2.5-8-2.5c-3.6,0-6.7,0.9-9.3,2.7
				c-2.5,1.8-4.5,4.1-5.7,7.1c-1.3,2.9-1.9,6.1-1.9,9.6c0,3.9,1.1,7,3.4,9.4c2.2,2.3,5.6,3.5,10.1,3.5c2.1,0,4.1-0.3,6.2-0.8
				c2-0.5,4.1-1.4,6.3-2.5c0.3-0.2,0.7-0.3,1-0.3c0.5,0,1,0.2,1.3,0.6c0.3,0.4,0.5,0.9,0.5,1.5c0,0.4-0.1,0.8-0.3,1.2
				c-0.2,0.4-0.5,0.7-1,1c-1.9,1.2-4.1,2.1-6.6,2.7c-2.5,0.6-5,0.9-7.5,0.9C754.5,216.6,751.2,215.9,748.4,214.4z M759.2,200.3
				c0.5-0.7,0.9-1.6,1.2-2.7l1.5-7.3c-1.1,0-2.1,0.4-3.1,1.3c-0.9,0.8-1.7,1.9-2.2,3.2c-0.6,1.3-0.8,2.7-0.8,4.2
				c0,0.8,0.2,1.4,0.5,1.8c0.3,0.4,0.8,0.6,1.4,0.6C758.2,201.3,758.7,201,759.2,200.3z"/>
		</g>
	</g>
	<path id="XMLID_77_" class="st0" d="M621.7,290.1h-56.8l-8.1-10.2c-1.2-1.5-3-2.4-4.9-2.4h-41.8c-2.7,0-4.9,2.2-4.9,4.9v17.2v63.6
		c0,5.3,4.3,9.6,9.6,9.6h107c5.3,0,9.6-4.3,9.6-9.6v-63.6C631.2,294.4,626.9,290.1,621.7,290.1z"/>
	<g id="XMLID_124_">
		<g id="XMLID_121_">
			<path id="XMLID_72_" class="st0" d="M443.9,502.8c-0.4,0.9-1,1.8-1.9,2.6s-1.9,1.4-2.8,1.7l-2.3-7.2c1.5-0.7,2.8-1.8,4-3.3
				c1.2-1.5,1.9-3.1,2-4.9l7.2-2.3l14.6,45l-9.5,3.1L443.9,502.8z"/>
		</g>
		<g id="XMLID_130_">
			<path id="XMLID_70_" class="st0" d="M513,440c-0.7,0.7-1.6,1.2-2.8,1.6c-1.2,0.3-2.3,0.5-3.3,0.3l0.9-7.5c1.6-0.1,3.3-0.5,5-1.4
				c1.7-0.8,3-2,3.9-3.6l7.5,0.9l-5.4,47l-9.9-1.1L513,440z"/>
		</g>
		<g id="XMLID_57_">
			<path id="XMLID_68_" class="st0" d="M538.6,476.1c-0.3,0.9-0.9,1.8-1.8,2.7c-0.9,0.8-1.8,1.4-2.8,1.8l-2.7-7
				c1.4-0.8,2.7-2,3.8-3.5c1.1-1.5,1.7-3.2,1.8-5l7.1-2.7l16.8,44.2l-9.4,3.5L538.6,476.1z"/>
		</g>
		<g id="XMLID_125_">
			<path id="XMLID_65_" class="st0" d="M472.2,510c-1.9-2.5-2.6-5.8-2.1-10l2.4-21.2c0.5-4.4,1.9-7.7,4.3-9.8
				c2.3-2.1,5.6-2.9,9.7-2.4c4.2,0.5,7.1,2,8.9,4.6c1.8,2.6,2.5,6.1,2,10.5l-2.4,21.2c-0.5,4.2-1.9,7.3-4.3,9.2
				c-2.4,2-5.6,2.7-9.6,2.3C477.1,513.9,474.1,512.5,472.2,510z M483.8,505c0.5-0.6,0.8-1.3,0.9-2.2l2.6-23.2
				c0.2-1.3,0.1-2.4-0.1-3.1c-0.2-0.7-0.8-1.2-1.8-1.3c-0.9-0.1-1.6,0.2-2,0.9c-0.4,0.7-0.6,1.7-0.8,3l-2.6,23.2
				c-0.1,0.9,0,1.7,0.4,2.3c0.3,0.7,0.9,1.1,1.6,1.1C482.7,505.8,483.3,505.6,483.8,505z"/>
		</g>
		<g id="XMLID_129_">
			<path id="XMLID_62_" class="st0" d="M510.2,538.5c-1.9-2.5-2.6-5.8-2.1-10l2.4-21.2c0.5-4.4,1.9-7.7,4.3-9.8
				c2.3-2.1,5.6-2.9,9.7-2.4c4.2,0.5,7.1,2,8.9,4.6c1.8,2.6,2.5,6.1,2,10.5l-2.4,21.2c-0.5,4.2-1.9,7.3-4.3,9.2
				c-2.4,2-5.6,2.7-9.6,2.3C515.1,542.4,512.1,540.9,510.2,538.5z M521.8,533.5c0.5-0.6,0.8-1.3,0.9-2.2l2.6-23.2
				c0.2-1.3,0.1-2.4-0.1-3.1c-0.2-0.7-0.8-1.2-1.8-1.3c-0.9-0.1-1.6,0.2-2,0.9c-0.4,0.7-0.6,1.7-0.8,3l-2.6,23.2
				c-0.1,0.9,0,1.7,0.4,2.3c0.3,0.7,0.9,1.1,1.6,1.1C520.7,534.3,521.3,534.1,521.8,533.5z"/>
		</g>
		<g id="XMLID_131_">
			<path id="XMLID_59_" class="st0" d="M436.6,459.3c0.3-3.1,2-6,5.2-8.8l16.1-14c3.4-2.9,6.6-4.4,9.8-4.3c3.1,0,6.1,1.6,8.8,4.7
				c2.7,3.2,3.9,6.3,3.5,9.4s-2.3,6.1-5.7,9.1l-16.1,14c-3.2,2.8-6.3,4.1-9.4,3.9c-3.1-0.2-6-1.8-8.6-4.8
				C437.5,465.5,436.3,462.4,436.6,459.3z M448.5,463.4c0.8-0.1,1.5-0.4,2.2-1l17.6-15.3c1-0.9,1.7-1.7,2-2.4
				c0.3-0.7,0.2-1.4-0.4-2.1c-0.6-0.7-1.3-1-2-0.7c-0.7,0.2-1.6,0.8-2.6,1.7l-17.6,15.3c-0.7,0.6-1.1,1.2-1.3,2
				c-0.2,0.7-0.1,1.4,0.4,1.9C447.1,463.3,447.7,463.5,448.5,463.4z"/>
		</g>
		<g id="XMLID_127_">
			<polygon id="XMLID_76_" class="st0" points="497.1,521.4 431.5,521.4 487.4,632.6 489.9,704.7 497.1,704.7 504.3,704.7 
				506.8,632.6 562.7,521.4 			"/>
		</g>
	</g>
	<g id="XMLID_35_">
		<g id="XMLID_587_">
			<path id="XMLID_590_" class="st0" d="M411.3,139.5c7.1,0,13.9,0.9,20.7,2.4c8.6,2.1,17.1,5.3,24.8,9.8c6.8,3.8,13,8.6,18.8,14.1
				c3.6,3.4,6.6,6.8,9.6,10.7c1.7,2.4,2.1,5.1,0.9,7.7c-1.3,2.8-3.4,4.3-6.2,4.3c-2.1,0-3.8-0.9-5.3-2.4c-2.4-2.8-4.5-5.6-7.1-7.9
				c-5.3-5.1-10.9-9.4-17.1-13.3c-7.5-4.3-15.6-7.5-24-9.2c-6-1.3-12.2-1.7-18-1.5c-6.2,0.2-12.6,1.3-18.8,3.2
				c-5.6,1.7-10.7,3.8-15.8,6.6c-6,3.4-11.5,7.5-16.7,12.2c-3.2,3-6,6-8.6,9.4c-2.6,3.4-6.8,3.6-9.6,1.3c-3-2.4-3.6-7.3-1.5-10.3
				c2.4-3.4,5.3-6.2,8.1-9.4c2.1-2.1,4.3-4.3,6.6-6.2c4.7-4.1,9.8-7.5,15.4-10.5c7.5-4.1,15.4-7.3,23.3-9.2
				c4.5-1.1,9.4-1.7,14.1-2.1C406.8,139.7,409.2,139.5,411.3,139.5z"/>
			<path id="XMLID_589_" class="st0" d="M410.9,168.8c9.4,0,18.2,1.7,26.7,5.6c6.8,3,13,7.1,18.6,12.2c2.8,2.6,5.6,5.6,7.9,8.6
				c3.4,4.3,1.7,10.3-3.2,12.2c-2.6,0.9-5.8-0.2-7.5-2.4c-5.6-6.8-12.2-12.2-19.9-15.8c-4.9-2.4-10.1-3.8-15.4-4.5
				c-4.1-0.4-8.1-0.4-12.2-0.2c-5.3,0.4-10.5,1.9-15.4,4.1c-5.6,2.4-10.7,5.8-15.4,10.1c-2.4,2.1-4.3,4.3-6.2,6.6
				c-1.7,2.1-4.1,2.8-6.6,2.1c-2.6-0.6-4.3-2.4-5.1-5.1c-0.9-2.8-0.2-5.3,1.7-7.5c3.6-4.3,7.5-8.1,11.5-11.5c7.1-5.6,15-9.6,23.3-12
				C399.6,169.9,405.3,168.8,410.9,168.8z"/>
			<path id="XMLID_588_" class="st0" d="M411.3,198.3c8.1,0,15.6,2.4,22.5,7.1c3.6,2.4,6.8,5.6,9.4,9c1.7,2.4,1.9,4.9,0.9,7.5
				c-1.3,2.6-3.2,4.3-6,4.3c-2.4,0.2-4.3-0.6-5.6-2.6c-3-3.6-6.6-6.4-10.9-8.3c-2.6-1.1-5.6-1.7-8.1-1.9c-4.3-0.4-8.1,0.4-12.2,2.1
				s-7.5,4.3-10.5,8.1c-1.9,2.4-4.9,3.6-7.7,2.4c-4.7-1.7-6.2-7.9-3.2-12c3.8-4.7,8.1-8.6,13.7-11.3c4.9-2.6,10.1-4.1,15.8-4.3
				c0.4,0,0.6,0,1.1-0.2C410.7,198.1,410.9,198.3,411.3,198.3z"/>
		</g>
		<circle id="XMLID_591_" class="st0" cx="412" cy="242.4" r="15.2"/>
	</g>
	<path id="XMLID_128_" class="st0" d="M279.6,389.6c0,30.8,25,55.7,55.7,55.7s55.7-25,55.7-55.7s-25-55.7-55.7-55.7
		C304.6,333.9,279.6,358.8,279.6,389.6z M353.3,345c0.6,2,2,6.2,3.3,12.1c-4.9,1-10.8,1.8-17.4,2v-17.4
		C344.1,342.1,348.9,343.2,353.3,345z M317.3,345c4.4-1.9,9.2-2.9,14.2-3.3v17.4c-5.6-0.1-11.4-0.8-17.7-1.9
		C315.3,351.1,316.7,346.8,317.3,345z M306.3,355.5c-1.2-0.2-2.5-0.6-3.8-1c1.6-1.5,3.3-2.9,5.1-4.2
		C307.2,351.9,306.8,353.6,306.3,355.5z M309.4,393.5h22.1v19.9c-6.2,0.2-13.1,1-20.2,2.3C310,408.1,309.4,400.7,309.4,393.5z
		 M358.8,415.5c-5.5-1.1-12.1-2-19.6-2.2v-19.8H361C360.8,400.6,360.3,408,358.8,415.5z M339.2,385.9V367c7.2-0.3,13.7-1.2,19-2.2
		c1.2,6.1,2,13.3,2.5,21.1H339.2L339.2,385.9z M331.6,385.9l-21.9-0.1c0.4-7.7,1.5-14.9,2.5-21c6.8,1.4,13.3,1.9,19.3,2.1
		L331.6,385.9L331.6,385.9z M362.7,350.1c1.8,1.3,3.4,2.5,5.1,4.1c-1,0.3-2.3,0.7-3.7,1.1C363.7,353.4,363.2,351.7,362.7,350.1z
		 M373.4,360.4c5.6,7.2,9.2,16,9.9,25.5h-14.9c-0.3-5-0.6-9.4-1.2-13.5c-0.4-3.3-0.9-6.5-1.5-9.4
		C369.3,361.9,371.9,360.9,373.4,360.4z M368.6,393.5h14.8c-0.8,9.8-4.5,18.8-10.2,26.1c-1.7-0.6-4-1.4-6.8-2.2
		C367.9,409.1,368.5,401,368.6,393.5L368.6,393.5z M367.4,425.7c-1.2,1.1-2.5,2.1-3.8,3c0.3-1.4,0.7-2.6,1.1-3.9
		C365.6,425.1,366.4,425.4,367.4,425.7z M353.4,434.3c-4.4,1.9-9.2,2.9-14.1,3.3V421c6.9,0.2,13,1.1,17.9,2
		C356.1,426.9,354.8,430.7,353.4,434.3z M331.6,437.7c-5.3-0.4-10.4-1.7-15.1-3.7c-1.4-3.5-2.5-7.2-3.4-10.7
		c6.5-1.3,12.7-1.9,18.5-2.1V437.7z M306.4,428.3c-1.1-0.9-2-1.7-3-2.5c0.8-0.2,1.5-0.4,2.2-0.6C305.8,426,306.1,427.1,306.4,428.3z
		 M297.5,419.4c-5.6-7.2-9.4-16.1-10.1-25.8h14.3c0,7.5,0.6,15.7,2.1,24C301.8,418,299.7,418.7,297.5,419.4z M301.9,385.9l-14.6-0.1
		c0.8-9.4,4.2-17.9,9.4-25c2.6,0.9,5.3,1.6,7.8,2.3c-0.6,3.1-1.1,6.5-1.6,10C302.6,377,302.1,381.3,301.9,385.9L301.9,385.9z"/>
	<g id="XMLID_37_">
		<path id="XMLID_187_" class="st0" d="M227.2,512c2.7,4.1,5.9,7.9,8.8,11.7c0.4,0.6,1.2,0.9,1.9,0.7c3.1-0.6,6.1-0.9,9.3-0.8
			c1,0,1.5-0.7,1.9-1.4c1.9-3.7,3.9-7.3,5.6-11c0.6-1.2,1.2-1.6,2.7-1.2c3.1,1,6.2,2,9.3,2.9c1.3,0.4,1.7,1.1,1.4,2.3
			c-0.6,4.2-1.1,8.3-1.7,12.4c-0.1,1.2,0.1,1.9,1.1,2.6c2.3,1.4,4.3,3.1,6.1,5.1c1,1,1.9,1.3,3.3,0.8c3.7-1.3,7.5-2.5,11.2-3.8
			c1.6-0.6,2.4-0.2,3.2,1.3c1.3,2.6,2.7,5.2,4.1,7.8c1,1.9,0.9,2.1-0.8,3.4c-3,2.4-6.2,4.8-9.3,7.1c-1.2,0.9-1.6,1.8-1.2,3.3
			c0.6,2.6,0.9,5.2,0.7,7.8c0,1.2,0.5,2,1.5,2.5c3.7,1.9,7.5,3.8,11.2,5.6c1.2,0.6,1.6,1.4,1.2,2.7c-1,2.9-1.9,6-2.8,9.1
			c-0.4,1.4-1.1,1.8-2.5,1.7c-4.1-0.6-8.1-1-12.2-1.6c-1.3-0.2-2.2,0.2-2.9,1.3c-1.4,2.2-3,4.2-5,6c-1,0.8-1.2,1.7-0.7,3
			c1.3,3.8,2.6,7.6,3.9,11.4c0.6,1.5,0.3,2.5-1.3,3.2c-2.7,1.3-5.5,2.8-8.1,4.3c-1.3,0.7-2.2,0.5-3-0.6c-2.5-3.2-5-6.4-7.4-9.6
			c-0.8-1.1-1.6-1.4-3-1.2c-2.6,0.6-5.3,0.8-8,0.8c-1.2,0-2,0.5-2.5,1.5c-1.8,3.7-3.8,7.5-5.6,11.2c-0.6,1.3-1.4,1.6-2.8,1.1
			c-2.9-1-6-1.9-9.1-2.8c-1.3-0.4-1.8-1.1-1.6-2.4c0.6-4.1,1-8.1,1.6-12.3c0.1-1.4-0.1-2.3-1.4-3.1c-2.3-1.4-4.3-3.1-6.2-5.1
			c-0.8-0.8-1.5-1.1-2.6-0.7c-4.6,1.5-9.1,2.9-13.7,4.5c-2.1-4-4.2-7.9-6.3-11.9c3.6-2.8,7.2-5.6,10.8-8.3c1.3-0.9,1.7-2,1.3-3.6
			c-0.6-2.4-0.8-4.9-0.7-7.4c0.1-1.4-0.5-2.2-1.7-2.8c-3.7-1.9-7.4-3.8-11.1-5.7c-1.1-0.5-1.4-1.1-1-2.3c1-3.1,2-6.2,2.9-9.3
			c0.4-1.4,1.1-1.8,2.6-1.6c4,0.7,8,1,12,1.7c1.3,0.2,2.1-0.1,2.8-1.2c1.3-2.3,3-4.2,5-6c1.1-1,1.4-2,0.8-3.4
			c-1.4-4.4-2.9-8.8-4.3-13.2C219.3,516.2,223.3,514.1,227.2,512z M254.8,579.1c8.2-3.5,13.3-14.8,8-25.2c-4.7-9-16.1-12.5-25-7.8
			c-9.2,4.9-12.9,16.2-8,25.3C235.3,582.1,247.8,583.6,254.8,579.1z"/>
		<path id="XMLID_183_" class="st0" d="M354.2,564.3c2.2-1.8,4.5-3.7,6.7-5.7c1.3-1.1,2.2-1,3.4,0.1c1.5,1.4,3.2,2.7,4.7,4
			c1,0.8,1.1,1.5,0.5,2.6c-1.5,2.4-2.9,4.9-4.4,7.5c-0.7,1-0.7,1.9-0.1,3c0.9,1.6,1.8,3.2,2.6,5c0.5,1,1.3,1.6,2.5,1.6
			c2.7,0.2,5.5,0.4,8.3,0.6c1.5,0.1,2.1,0.7,2.2,2.1c0.1,2.1,0.3,4.3,0.6,6.4c0.2,1.3-0.4,2-1.6,2.3c-2.8,0.7-5.7,1.6-8.5,2.3
			c-1.3,0.3-1.8,1-2,2.1c-0.3,1.7-0.8,3.4-1.5,4.9c-0.6,1.3-0.4,2.3,0.5,3.4c1.9,2.1,3.7,4.3,5.6,6.4c0.8,1,1,1.8,0,2.7
			c-1.4,1.6-2.8,3.4-4.2,5.1c-0.8,1-1.6,1.2-2.7,0.5c-2.6-1.5-5.1-2.9-7.6-4.5c-1-0.7-1.9-0.7-2.9,0.1c-1.5,1-3.2,1.9-4.9,2.6
			c-1,0.3-1.5,1-1.5,2c-0.2,3-0.5,5.9-0.6,8.8c0,1.7-0.8,2.3-2.3,2.3c-2,0-4,0.2-5.9,0.6c-1.5,0.3-2.2-0.3-2.6-1.8
			c-0.7-2.7-1.5-5.4-2.1-8c-0.4-1.3-1-2.1-2.4-2.3c-1.6-0.4-3.2-0.8-4.7-1.5c-1.3-0.6-2.3-0.3-3.3,0.6c-2.1,1.9-4.3,3.7-6.4,5.6
			c-1,0.8-1.7,0.9-2.7,0c-1.6-1.4-3.2-2.8-4.9-4.1c-1.1-0.8-1.3-1.7-0.6-3c1.6-2.5,2.9-5,4.3-7.5c0.6-1.1,0.7-2.1-0.2-3.1
			c-1.1-1.4-1.9-3-2.5-4.7c-0.4-1.1-1.1-1.7-2.3-1.7c-3-0.2-6-0.5-9-0.8c-1.1-0.1-1.7-0.5-1.8-1.8c-0.2-2.2-0.3-4.4-0.6-6.5
			c-0.2-1.4,0.3-2.1,1.8-2.5c2.7-0.7,5.5-1.5,8.3-2.1c1.2-0.3,1.8-0.8,2.1-2.1c0.4-1.8,1-3.6,1.7-5.4c0.4-1.1,0.3-1.9-0.5-2.7
			c-1.9-2.2-3.7-4.5-5.6-6.6c-1-1.1-0.9-1.9,0.1-3c1.4-1.6,2.8-3.2,4.1-4.9c0.8-1,1.6-1.2,2.7-0.5c2.5,1.6,5.1,2.9,7.5,4.5
			c0.8,0.5,1.6,0.6,2.5,0c1.8-1,3.6-2,5.3-2.8c1-0.4,1.4-1.1,1.4-2.1c0.2-3,0.6-5.9,0.8-8.9c0.1-1.3,0.6-1.8,1.9-1.9
			c2.2-0.2,4.4-0.4,6.7-0.6c1.3-0.2,1.9,0.4,2.2,1.7c0.7,2.7,1.4,5.4,2,8.1c0.4,1.3,1.1,2.1,2.4,2.3c1.7,0.3,3.4,0.8,5,1.6
			C352.6,564.8,353.6,564.9,354.2,564.3z M346.9,604.5c7.1-3.7,9.7-12.1,6-19.3c-3.7-7.1-12.2-9.8-19.2-6.1
			c-7,3.7-9.7,12.4-6.1,19.3C331.3,605.5,339.9,608.2,346.9,604.5z"/>
	</g>
	<rect id="XMLID_25_" x="1263.8" y="548" class="st3" width="22.4" height="108.1"/>
	<rect id="XMLID_28_" x="863.2" y="614.1" class="st4" width="26.5" height="236.1"/>
	<rect id="XMLID_29_" x="657.8" y="614.1" class="st4" width="23.8" height="236.1"/>
	<path id="XMLID_21_" class="st5" d="M1268.2,697.9h-201.3c-14,0-25.3-11.3-25.3-25.3v0c0-14,11.3-25.3,25.3-25.3h201.3
		c14,0,25.3,11.3,25.3,25.3v0C1293.5,686.6,1282.2,697.9,1268.2,697.9z"/>
	<path id="XMLID_23_" class="st6" d="M918.4,469.1c0,0-32.9,0-49.6,7.3c-16.6,7.3-25.4,23.9-22.3,26.7c3.1,2.7,23.9-8.2,28.9-6.6
		s-10.6,10.9-6.8,17.5c3.8,6.6,14.2-7.7,21.8-11s8.2,5.9,34.7-6.4L918.4,469.1z"/>
	<path id="XMLID_22_" class="st7" d="M1118.4,347c0,0-64.3,89.3-200.4,115.9l2.5,42.8c0,0,128.8,10.3,223.9-86.7L1118.4,347z"/>
	<path id="XMLID_36_" class="st8" d="M867.1,828.8c0,0-20.5,27.2-42.4,39.8c-21.9,12.7-35.1,10.7-37.5,21.4
		c-2.4,10.7,2.9,10.4,24.8,10.8c21.9,0.4,107.5,0.4,119.3-7.4c11.8-7.8-9.3-64.8-9.3-64.8L867.1,828.8z"/>
	<path id="XMLID_20_" class="st9" d="M931.7,477.6c0,0-32.9-1.9-49.9,4.4s-26.8,22.4-23.9,25.3c2.9,2.9,24.4-6.8,29.2-4.9
		c4.9,1.9-11.2,10.2-7.8,17c3.4,6.8,14.6-6.8,22.4-9.7c7.8-2.9,7.8,6.3,35.1-4.4L931.7,477.6z"/>
	<path id="XMLID_9_" class="st10" d="M1102.9,545.2c0,0,2.7,26.2-19.4,32.9c-22,6.8-132.5,24.8-180.2,78.4
		c-43.2,48.5-40.1,175-40.1,175l42,7.5l34.1-170.5l228.2-52l-15.2-71.3H1102.9z"/>
	<path id="XMLID_12_" class="st11" d="M1226.8,545.2c0,0,25,77-17.8,102.9s-158.1,26.9-209.9,31.4c-51.8,4.5-51.4,159.6-52.5,185.5
		h-69.8c0,0-13.9-163,43.5-209.1c57.4-46.2,149.4-64,181.4-68.5c31.9-4.5,20.2-30.8,20.2-30.8L1226.8,545.2z"/>
	<path id="XMLID_4_" class="st5" d="M1140.9,283.5c0,0,6-23.5,3.3-51.1c-2.7-27.6-5.6-75.4-38.8-83.5c-33.2-8.1-37.9,4.7-58.8,5.4
		c-20.9,0.7-51.2,19.5-65.3,37.7s-17.5,117.8,5.4,153.5s-9.4,72,8.8,95.6c18.2,23.6,113.1,42.4,119.2-5.4S1140.9,283.5,1140.9,283.5
		z"/>
	<path id="XMLID_11_" class="st12" d="M1104.1,355.2c0,0-20,61.5-19,76.6c1,15,7.5,24.4,13.3,33.6c5.8,9.3,4.6,61.6,4.6,79.8
		c0,18.2,76.6,11.8,121.8,2.8c21.9-4.4,8.9-167.1-57.2-222.7L1104.1,355.2z"/>
	<path id="XMLID_10_" class="st13" d="M1102.7,348.1c0,0,10.4-31.4,30.1-39.4c19.7-8,29.1,2.5,30.5,7.8s-22,14.8-35.1,22.1
		c-13.1,7.3-22.2,16-25.1,13.9S1102.7,348.1,1102.7,348.1z"/>
	<path id="XMLID_2_" class="st9" d="M1014.2,208c0,0-2.4,24-1.2,33.4s-8.5,29.4-7.6,36c0.9,6.6,15.5,4.2,19.3,5.4
		c3.9,1.3,7.1,14.3,9.4,24.8c2.3,10.6,5.3,14.9,23.6,13.7c18.3-1.2,27.7-8.7,31.8-13.3c3.1-3.6,11.6,14.3,22.6,38.8l51.3-25.9
		c0,0-28.5-52.8-34.5-67.6c-8.6-21.1,6.5-22.4-4.9-36.5c-11.5-14.2-18.2-4.2-22-5.9s-6.6-34-39.3-31.3S1014.9,199.3,1014.2,208z"/>
	<path id="XMLID_7_" class="st5" d="M1005.5,199.9c0,0,10.5,12.3,29.8,8.7c19.3-3.6,67,31.8,97.2-1.3c0,0-18.4-37.3-43.5-39.5
		C1063.9,165.5,1005.5,199.9,1005.5,199.9z"/>
	<path id="XMLID_6_" class="st5" d="M1025.5,227.3c0,0,0.8-9.9,15.4-13.1c14.6-3.3,19.9,3.5,17.8,6.2s-8-3.7-19.2,1.2
		C1029.7,225.8,1026.1,235.4,1025.5,227.3z"/>
	
		<ellipse id="XMLID_8_" transform="matrix(0.9645 -0.2641 0.2641 0.9645 -25.1334 284.6079)" class="st5" cx="1046" cy="235.8" rx="4.8" ry="8"/>
	<path id="XMLID_5_" class="st14" d="M1104.1,350.7c0,0,13.5-30.2,33.8-36.2c20.3-6,28.7,5.4,29.6,10.8s-23.3,12.6-37.1,18.6
		c-13.8,6-23.6,13.8-26.3,11.4C1101.4,352.8,1104.1,350.7,1104.1,350.7z"/>
	<path id="XMLID_13_" class="st12" d="M1138.5,367.5c0,0-69.5,85.4-206.8,103.9v42.9c0,0,128,17.9,228.6-73.4L1138.5,367.5z"/>
	<rect id="XMLID_14_" x="536.6" y="538" class="st4" width="468.9" height="20"/>
	<rect id="XMLID_15_" x="581.9" y="557.9" class="st15" width="378.4" height="56.1"/>
	<rect id="XMLID_16_" x="582.7" y="614.1" class="st4" width="25" height="322.9"/>
	<path id="XMLID_18_" class="st3" d="M938.4,522.9H657.8v15h280.6c1.6,0,2.8-1.3,2.8-2.8v-9.4C941.2,524.2,940,522.9,938.4,522.9z"
		/>
	<path id="XMLID_17_" class="st16" d="M656.2,538H892l-22.9-136.8c-0.8-5.1-5.2-8.8-10.4-8.8H645.2c-6.5,0-11.4,5.8-10.4,12.2
		L656.2,538z"/>
	<circle id="XMLID_19_" class="st17" cx="759.3" cy="467.2" r="21.1"/>
	<path id="XMLID_24_" class="st5" d="M1285.1,397.9L1285.1,397.9c4.6,0,8.4,3.8,8.4,8.4v133.3c0,4.6-3.8,8.4-8.4,8.4h-36.4
		c-8.1,0-14.6-6.6-14.6-14.6v-84.5C1234.1,420.7,1256.9,397.9,1285.1,397.9z"/>
	<path id="XMLID_26_" class="st10" d="M620.2,499.4h-24.9c-16.5,0-29.9,13.4-29.9,29.9v8.7H650v-8.7
		C650,512.8,636.7,499.4,620.2,499.4z"/>
	<g id="XMLID_31_">
		<path id="XMLID_38_" class="st10" d="M617.4,510l-19.4-1.4l10.7-151c1.9-26.8,19.3-50.5,44.3-60.4l43.5-17.3
			c16.9-6.7,36,0.4,44.4,16.4l-17.3,9c-3.8-7.2-12.4-10.4-19.9-7.4l-43.5,17.3c-18.1,7.2-30.6,24.3-32,43.7L617.4,510z"/>
	</g>
	<rect id="XMLID_32_" x="1160.3" y="697.9" class="st3" width="26.3" height="163"/>
	<circle id="XMLID_33_" class="st12" cx="759.3" cy="345.6" r="17.6"/>
	<path id="XMLID_30_" class="st10" d="M800.8,323.3l-84.9,45l-5.2-9.8c-12.4-23.4-3.5-52.5,20-64.9l0,0c23.4-12.4,52.5-3.5,64.9,20
		L800.8,323.3z"/>
	<path id="XMLID_34_" class="st16" d="M884.2,864.9c0,0-20.5,27.2-42.4,39.8c-21.9,12.7-35.1,10.7-37.5,21.4
		c-2.4,10.7,2.9,10.4,24.8,10.8c21.9,0.4,107.5,0.4,119.3-7.4c11.8-7.8-9.3-64.8-9.3-64.8L884.2,864.9z"/>
	<rect id="XMLID_27_" x="931.6" y="614.1" class="st4" width="28.7" height="322.9"/>
	<g id="XMLID_56_">
		<path id="XMLID_120_" class="st5" d="M1209.1,193.5l-31.6-21.1c-2.6-1.8-3.4-5.3-1.6-8v0c1.8-2.6,5.3-3.4,8-1.6l31.6,21.1
			c2.6,1.8,3.4,5.3,1.6,8v0C1215.3,194.6,1211.7,195.3,1209.1,193.5z"/>
		<path id="XMLID_122_" class="st5" d="M1197.7,201.9l-23.6-15.8c-2.6-1.8-3.4-5.3-1.6-8v0c1.8-2.6,5.3-3.4,8-1.6l23.6,15.8
			c2.6,1.8,3.4,5.3,1.6,8v0C1203.9,203,1200.3,203.7,1197.7,201.9z"/>
		<path id="XMLID_123_" class="st5" d="M1186.9,210.7l-16.7-11.2c-2.6-1.8-3.4-5.3-1.6-8v0c1.8-2.6,5.3-3.4,8-1.6l16.7,11.2
			c2.6,1.8,3.4,5.3,1.6,8v0C1193.1,211.7,1189.5,212.4,1186.9,210.7z"/>
		<path id="XMLID_126_" class="st12" d="M1262.2,149.6c8.4-15.3,5.7-28.4,0.9-37.7c-6-11.5-17.9-19.5-30.8-20.6
			c-10.5-0.9-23.6,1.7-34.5,15.3c-21.2,26.4-2.8,35.5-13.9,55.3c-0.8,1.5-0.2,3.4,1.3,4.5l13.2,8.8l13.2,8.8
			c1.6,1.1,3.6,0.8,4.7-0.5C1230.4,165.8,1245.9,179.2,1262.2,149.6z"/>
		<path id="XMLID_132_" class="st14" d="M1258.4,85.5L1258.4,85.5c-2-1.3-2.5-4-1.2-6l16-23.9c1.3-2,4-2.5,6-1.2l0,0
			c2,1.3,2.5,4,1.2,6l-16,23.9C1263,86.3,1260.4,86.8,1258.4,85.5z"/>
		<path id="XMLID_134_" class="st14" d="M1216.5,79.3L1216.5,79.3c-2.3,0.5-4.6-1-5.1-3.4l-5.6-28.2c-0.5-2.3,1-4.6,3.4-5.1l0,0
			c2.3-0.5,4.6,1,5.1,3.4l5.6,28.2C1220.4,76.5,1218.9,78.8,1216.5,79.3z"/>
		<path id="XMLID_135_" class="st14" d="M1282.2,128.8L1282.2,128.8c0.5,2.3,2.7,3.8,5.1,3.4l28.2-5.6c2.3-0.5,3.8-2.7,3.4-5.1v0
			c-0.5-2.3-2.7-3.8-5.1-3.4l-28.2,5.6C1283.2,124.2,1281.7,126.5,1282.2,128.8z"/>
	</g>
	<path id="XMLID_74_" class="st18" d="M1173.4,860.9c0,0-98.3,2.9-103.2,68.7"/>
	<path id="XMLID_75_" class="st18" d="M1173.4,860.9c0,0,98.3,2.9,103.2,68.7"/>
	<circle id="XMLID_58_" class="st5" cx="1068.8" cy="918.3" r="18.8"/>
	<circle id="XMLID_78_" class="st5" cx="1276.6" cy="918.3" r="18.8"/>
</g>
</svg>
